<svg id="Layer_1" enable-background="new 0 0 512 512" height="512" viewBox="0 0 512 512" width="512" xmlns="http://www.w3.org/2000/svg"><g><g><g><path d="m451.886 314.466h-278.91v-266.566c55.83-99.808 405.69-58.521 278.91 266.566z" fill="#823931"/><path d="m451.886 314.466c57.64-308.613-232.81-330.112-278.91-266.566 55.83-99.808 405.69-58.521 278.91 266.566z" fill="#6d201b"/><path d="m219.076 146.607v70.462l-41.67 97.396h-110.63c-.23-.481-.46-.971-.69-1.451-94-199.626 32.33-302.927 106.25-265.224 26.82 13.662 46.74 45.891 46.74 98.817z" fill="#aa5d57"/><g><g><path d="m466.896 501.431c-4.6 1.602-10.98 3.623-18.5 5.475-30.78 7.577-80.47 12.171-103.54-27.574v-123.149h93.45s-.4 1.541-.94 4.344c-3.31 17.055-11.91 81.042 31.89 131.997 2.57 2.981 1.36 7.616-2.36 8.907z" fill="#823931"/><path d="m466.896 501.431c-4.6 1.602-10.98 3.623-18.5 5.475-49.51-50.745-22.21-122.598-11.03-146.379-3.31 17.055-11.91 81.042 31.89 131.997 2.57 2.981 1.36 7.616-2.36 8.907z" fill="#6d201b"/></g><g><path d="m51.674 501.431c4.6 1.602 10.98 3.623 18.5 5.475 30.78 7.577 80.47 12.171 103.54-27.574v-123.149h-93.45s.4 1.541.94 4.344c3.31 17.055 11.91 81.042-31.89 131.997-2.57 2.981-1.36 7.616 2.36 8.907z" fill="#aa5d57"/><path d="m51.674 501.431c4.6 1.602 10.98 3.623 18.5 5.475 49.51-50.745 22.21-122.598 11.03-146.379 3.31 17.055 11.91 81.042-31.89 131.997-2.57 2.981-1.36 7.616 2.36 8.907z" fill="#823931"/></g></g><g fill="#fab684"><path d="m110.563 365.837c-9.425 2.157-20.128.472-29.441-5.492-17.2-11.015-23.142-32.453-13.273-47.884 8.215-12.844 24.797-17.477 40.045-12.316z"/><path d="m408.013 365.826c9.436 2.174 20.16.493 29.488-5.481 17.2-11.015 23.142-32.453 13.273-47.884-8.215-12.844-24.797-17.477-40.045-12.316z"/></g><path d="m259.286 512c-4.48 0-8.85-.15-13.11-.44h-.03c-153.57-10.369-160.44-202.939-121.07-257.117 29.69-40.866 94.21-47.902 94.21-99.388 0 51.486 144.52 58.522 174.21 99.388 40.46 55.679 32.08 257.557-134.21 257.557z" fill="#ffe8c8"/><path d="m259.286 512c-4.48 0-8.85-.15-13.11-.44 153.95-10.66 163.38-212.308 120.32-245.107-40.17-30.597-147.21-27.584-147.21-111.398 0 51.486 144.52 58.522 174.21 99.388 40.46 55.679 32.08 257.557-134.21 257.557z" fill="#fdd9b4"/><path d="m172.336 47.79c-32.88-5.064-169.05 87.778-104.49 264.674l-1.76.55c-94-199.626 32.33-302.927 106.25-265.224z" fill="#823931"/></g></g><g><path d="m222.258 320.322v186.467c0 2.88-2.33 5.21-5.21 5.21h-60.58c-2.88 0-5.21-2.33-5.21-5.21v-186.467z" fill="#99e7fa"/><path d="m222.258 320.322v186.467c0 2.88-2.33 5.21-5.21 5.21h-17.93v-191.677z" fill="#4dd4f7"/></g><g><path d="m368.209 320.322v186.467c0 2.88-2.33 5.21-5.21 5.21h-60.58c-2.88 0-5.21-2.33-5.21-5.21v-186.467z" fill="#99e7fa"/><path d="m368.209 320.322v186.467c0 2.88-2.33 5.21-5.21 5.21h-17.93v-191.677z" fill="#4dd4f7"/></g><g fill="#fab684"><path d="m237.738 316.137c-53.737-14.412-101.087-.537-103.076.062-3.964 1.19-6.209 5.366-5.023 9.332 1.187 3.966 5.366 6.218 9.332 5.036.447-.135 45.408-13.21 94.881.059.651.175 1.304.258 1.948.258 3.311 0 6.341-2.209 7.239-5.56 1.073-4-1.301-8.114-5.301-9.187z"/><path d="m383.688 316.137c-53.74-14.412-101.086-.538-103.075.062-3.964 1.19-6.21 5.366-5.022 9.332 1.187 3.964 5.364 6.217 9.331 5.036.448-.134 45.402-13.21 94.882.059.65.175 1.304.258 1.947.258 3.311 0 6.341-2.209 7.239-5.56 1.073-4-1.301-8.114-5.302-9.187z"/></g></g></svg>