<svg height="512" viewBox="0 0 512 512" width="512" xmlns="http://www.w3.org/2000/svg"><g id="flat"><path d="m445.96 372.08-57.77 35.55h-176l-37.68-26.49c-46-24.54-86.67-60.85-114.04-105.23-4.6-7.46-18.9-14.43-22.47-20.2-.91-1.48-1.79-2.99-2.63-4.51a102.725 102.725 0 0 1 -8.51-20.4h-.01q-1.335-4.5-2.26-9.15l-.1-.51a22.181 22.181 0 0 1 17.71-26.17l17.99-3.34 5.62-7.49a61.252 61.252 0 0 1 92.32-6.57l6.06 6.06a304.4 304.4 0 0 0 82.86 20.29l5.66.57a164.317 164.317 0 0 0 16.43.82 165.526 165.526 0 0 0 45.46-6.37 152.409 152.409 0 0 1 144.36 33.76 87.571 87.571 0 0 1 -13 139.38z" fill="#02a437"/><path d="m332.013 407.633h-119.83l-49.67-26.49a294.4 294.4 0 0 1 -112.04-105.23c-4.6-7.46-8.91-14.43-12.48-20.21a103.093 103.093 0 0 1 -5.98-11.16l63.62 19.09a195.832 195.832 0 0 0 121.01 66.43l94.99 13.57z" fill="#eaeae8"/><g fill="#02a437"><path d="m118.67 263.54a79.742 79.742 0 0 1 -53.02-.98l-30.28-11.36a102.725 102.725 0 0 1 -8.51-20.4l4.19 1.7 40.22 15.08a63.681 63.681 0 0 0 42.34.78 8 8 0 1 1 5.06 15.18z"/><path d="m440.76 375.28-14.17 8.72h-78.04v-8.72z"/><path d="m119.08 263.59a79.742 79.742 0 0 1 -53.02-.98l-30.55-11.46a102.592 102.592 0 0 1 -8.4-20.36l4.35 1.76 40.22 15.08a63.681 63.681 0 0 0 42.34.78 8 8 0 1 1 5.06 15.18z"/></g><circle cx="116.554" cy="208" fill="#eaeae8" r="24"/><path d="m138.21 197.66-16 16a8 8 0 0 1 -11.31-11.32l16-16a24.077 24.077 0 0 1 11.31 11.32z" fill="#eaeae8"/><path d="m138.21 197.66-16 16a8 8 0 0 1 -11.31-11.32l16-16a24.077 24.077 0 0 1 11.31 11.32z" fill="#5f4623"/><path d="m287.034 244.263a353.952 353.952 0 0 1 -80.342-9.2l-9.378-2.188a8 8 0 1 1 3.636-15.581l9.378 2.188a339.334 339.334 0 0 0 155.127-.4 8 8 0 1 1 3.715 15.562 354.053 354.053 0 0 1 -82.136 9.619z" fill="#027e2a"/><path d="m307.476 278.762a319.361 319.361 0 0 1 -97.732-15.285l-20.172-6.5a8 8 0 1 1 4.907-15.228l20.173 6.5a303.427 303.427 0 0 0 136.975 11.264 8 8 0 1 1 2.353 15.826 316.269 316.269 0 0 1 -46.504 3.423z" fill="#027e2a"/><circle cx="155" cy="253" fill="#f2aab6" r="13"/><path d="m267.313 112 2.344-2.343a8 8 0 0 0 -11.314-11.314l-2.343 2.344-2.343-2.344a8 8 0 0 0 -11.314 11.314l2.344 2.343-2.344 2.343a8 8 0 0 0 11.314 11.314l2.343-2.344 2.343 2.344a8 8 0 0 0 11.314-11.314z" fill="#75c2d4"/><path d="m75.313 120 2.344-2.343a8 8 0 0 0 -11.314-11.314l-2.343 2.344-2.343-2.344a8 8 0 0 0 -11.314 11.314l2.344 2.343-2.344 2.343a8 8 0 0 0 11.314 11.314l2.343-2.344 2.343 2.344a8 8 0 0 0 11.314-11.314z" fill="#75c2d4"/><path d="m179.313 56 2.344-2.343a8 8 0 0 0 -11.314-11.314l-2.343 2.344-2.343-2.344a8 8 0 0 0 -11.314 11.314l2.344 2.343-2.344 2.343a8 8 0 0 0 11.314 11.314l2.343-2.344 2.343 2.344a8 8 0 1 0 11.314-11.314z" fill="#43aece"/><path d="m118.67 263.54a79.742 79.742 0 0 1 -53.02-.98l-30.28-11.36a102.725 102.725 0 0 1 -8.51-20.4l4.19 1.7 40.22 15.08a63.681 63.681 0 0 0 42.34.78 8 8 0 1 1 5.06 15.18z" fill="#027e2a"/><g fill="#02a437"><path d="m176 368 39.66 48-24 40-27.815-5.563a30 30 0 0 0 -22.524 4.456l-.3.2a30 30 0 0 0 -13.359 24.962v7.945h96l42.328-70.547a18 18 0 0 0 -.171-18.8l-34.159-54.653v-32l-70.823-18.045z"/><path d="m399.77 448-3 7.99h-74.93a52.843 52.843 0 0 1 -27.34-7.99z"/><path d="m444.553 384h-56l40-40-8-32h-3.859a208 208 0 0 0 -84.477 17.927l-.54.24a130.917 130.917 0 0 0 -51.559 41.08 52.971 52.971 0 0 0 4.921 69.238 52.97 52.97 0 0 0 37.461 15.515h26.536a27.992 27.992 0 0 0 -15.531 4.7l-4.478 2.985a28 28 0 0 0 -12.469 23.3v1.015h96l56-72z"/></g><path d="m412.768 416h-8.215l-12.8 32h-97.253a52.843 52.843 0 0 0 27.34 7.99h74.93l.05-.134z" fill="#027e2a"/><path d="m441.119 344h-12.566l-40.003 40h11.22 26.82l14.17-8.72h-31.976z" fill="#027e2a"/></g></svg>