<?xml version="1.0" encoding="iso-8859-1"?>
<!-- Generator: Adobe Illustrator 19.0.0, SVG Export Plug-In . SVG Version: 6.00 Build 0)  -->
<svg version="1.1" id="Capa_1" xmlns="http://www.w3.org/2000/svg" xmlns:xlink="http://www.w3.org/1999/xlink" x="0px" y="0px"
	 viewBox="0 0 512 512" style="enable-background:new 0 0 512 512;" xml:space="preserve">
<rect x="232.31" y="73.728" style="fill:#9FA4AA;" width="15.426" height="49.405"/>
<g>
	<rect x="99.86" y="394.595" style="fill:#546263;" width="15.426" height="66.086"/>
	<rect x="193.95" y="386.368" style="fill:#546263;" width="15.426" height="74.314"/>
	<path style="fill:#546263;" d="M258.495,114.632h-36.938c-6.115,0-11.072,4.957-11.072,11.072v48.01h59.082v-48.01
		C269.567,119.589,264.61,114.632,258.495,114.632z"/>
</g>
<path style="fill:#3F4C4C;" d="M242.64,114.632h-21.083c-6.115,0-11.072,4.957-11.072,11.073v48.01h21.083v-48.011
	C231.568,119.589,236.525,114.632,242.64,114.632z"/>
<rect x="219.476" y="48.747" style="fill:#546263;" width="41.108" height="33.491"/>
<rect x="219.476" y="48.747" style="fill:#3F4C4C;" width="18.227" height="33.491"/>
<path style="fill:#546263;" d="M507.934,235.944l-1.234,1.234c-5.422,5.422-14.212,5.422-19.634,0l-105.67-105.67
	c-5.422-5.422-5.422-14.212,0-19.634l1.234-1.234c5.422-5.422,14.212-5.422,19.634,0l105.67,105.67
	C513.355,221.732,513.355,230.522,507.934,235.944z"/>
<path style="fill:#EA1319;" d="M469.633,117.341v89.053c0,7.656-5.602,14.159-13.174,15.293l-168.817,25.27v21.988
	c0,27.747-7.466,53.745-20.527,76.093c-6.572,11.292-14.583,21.648-23.767,30.842c-27.366,27.366-65.171,44.294-106.935,44.294
	c-6.356,0-12.588-0.463-18.697-1.358c-3.075-0.442-6.109-0.998-9.102-1.656c-2.921-0.648-5.8-1.388-8.649-2.232
	c-20.887-6.15-39.563-17.463-54.558-32.457c-23.283-23.283-37.692-55.463-37.692-91.005c0-4.073,0.185-8.114,0.576-12.094
	c4.936-53.046,42.083-96.754,91.684-111.358c2.838-0.854,5.718-1.594,8.628-2.232c3.003-0.658,6.037-1.214,9.112-1.666
	c6.099-0.884,12.341-1.347,18.697-1.347h286.179l20.018-50.583c2.113-5.342,7.275-8.85,13.02-8.85l0,0
	C463.365,103.339,469.633,109.608,469.633,117.341z"/>
<g>
	<path style="fill:#3F4C4C;" d="M99.864,394.598h15.426v38.247c-2.242-0.37-4.474-0.802-6.674-1.286
		c-2.921-0.648-5.8-1.388-8.649-2.232c-0.031-0.01-0.072-0.021-0.103-0.031V394.598z"/>
	<path style="fill:#3F4C4C;" d="M209.381,386.371v29.454c-4.978,2.756-10.13,5.235-15.426,7.415v-36.869H209.381z"/>
</g>
<path style="fill:#D1111F;" d="M267.115,345.036c-6.572,11.292-14.583,21.648-23.767,30.842
	c-27.366,27.366-65.171,44.294-106.935,44.294c-9.544,0-18.841-1.039-27.798-3.013c-24.384-5.368-46.166-17.648-63.207-34.689
	c-23.283-23.283-37.692-55.463-37.692-91.005c0-4.073,0.185-8.114,0.576-12.094l37.075-25.402
	c0,71.558,58.013,129.571,129.571,129.571C211.004,383.54,243.626,368.813,267.115,345.036z"/>
<path style="fill:#C0EAF9;" d="M160.293,291.475c0,32.025-8.423,62.065-23.181,88.064c-7.816,13.781-17.421,26.43-28.498,37.62
	c-24.384-5.368-46.166-17.648-63.207-34.689c-23.283-23.283-37.692-55.463-37.692-91.005c0-44.407,22.492-83.559,56.697-106.678
	c13.195-8.927,28.127-15.467,44.191-19.005h0.01C140.558,198.064,160.293,242.461,160.293,291.475z"/>
<path style="fill:#A0D9F2;" d="M160.293,291.475c0,32.025-8.423,62.065-23.181,88.064c-21.556-6.037-40.828-17.545-56.224-32.94
	c-23.283-23.283-37.692-55.463-37.692-91.005c0-26.153,7.806-50.496,21.216-70.807c13.195-8.927,28.127-15.467,44.191-19.005h0.01
	C140.558,198.064,160.293,242.461,160.293,291.475z"/>
<g>
	<path style="fill:#D1111F;" d="M287.645,246.951v-19.168c0-10.677,8.367-19.481,19.031-20.023l162.959-8.287l-0.012,6.944
		c-0.013,7.645-5.612,14.135-13.174,15.266L287.645,246.951z"/>
	<path style="fill:#D1111F;" d="M167.997,291.479c0,47.667-17.812,92.692-50.28,127.339c-3.075-0.442-6.109-0.998-9.102-1.656
		c-2.921-0.648-5.8-1.388-8.649-2.232l3.168-3.198c31.881-32.22,49.436-74.931,49.436-120.253
		c0-45.343-17.555-88.053-49.436-120.274l-3.157-3.188c2.838-0.854,5.718-1.594,8.628-2.232c3.003-0.658,6.037-1.214,9.112-1.666
		C150.185,198.777,167.997,243.801,167.997,291.479z"/>
</g>
<path style="fill:#8C9093;" d="M472.184,48.75c0,4.258-3.455,7.713-7.713,7.713H15.585c-4.258,0-7.713-3.456-7.713-7.713
	s3.455-7.713,7.713-7.713H464.47C468.728,41.037,472.184,44.493,472.184,48.75z"/>
<path style="fill:#9FA4AA;" d="M472.184,48.75c0,4.258-3.455,7.713-7.713,7.713H182.189c-4.258,0-7.713-3.456-7.713-7.713
	s3.456-7.713,7.713-7.713H464.47C468.728,41.037,472.184,44.493,472.184,48.75z"/>
<path style="fill:#A0D9F2;" d="M221.723,302.824L221.723,302.824c-11.927,0-21.596-9.669-21.596-21.596v-43.192
	c0-11.927,9.669-21.596,21.596-21.596l0,0c11.927,0,21.596,9.669,21.596,21.596v43.192
	C243.319,293.155,233.65,302.824,221.723,302.824z"/>
<path style="fill:#D1111F;" d="M221.723,310.536c-16.161,0-29.309-13.147-29.309-29.309v-43.192
	c0-16.161,13.148-29.309,29.309-29.309s29.309,13.148,29.309,29.309v43.192C251.032,297.389,237.884,310.536,221.723,310.536z
	 M221.723,224.154c-7.655,0-13.883,6.228-13.883,13.883v43.192c0,7.655,6.228,13.883,13.883,13.883
	c7.655,0,13.883-6.228,13.883-13.883v-43.192C235.605,230.382,229.378,224.154,221.723,224.154z"/>
<path style="fill:#546263;" d="M300.393,470.963H44.734C20.068,470.963,0,450.895,0,426.229c0-4.26,3.453-7.713,7.713-7.713
	s7.713,3.453,7.713,7.713c0,16.161,13.147,29.309,29.308,29.309h255.659c4.261,0,7.713,3.453,7.713,7.713
	C308.106,467.51,304.654,470.963,300.393,470.963z"/>
<g>
</g>
<g>
</g>
<g>
</g>
<g>
</g>
<g>
</g>
<g>
</g>
<g>
</g>
<g>
</g>
<g>
</g>
<g>
</g>
<g>
</g>
<g>
</g>
<g>
</g>
<g>
</g>
<g>
</g>
</svg>
