<svg height="512pt" viewBox="0 -16 512.00015 512" width="512pt" xmlns="http://www.w3.org/2000/svg"><path d="m444.273438 226.898438c-20.59375-11.890626-43.984376-18.175782-67.640626-18.175782-48.320312 0-93.332031 25.972656-117.46875 67.777344-37.355468 64.707031-15.105468 147.746094 49.601563 185.101562 20.59375 11.890626 43.984375 18.175782 67.640625 18.175782 48.320312 0 93.328125-25.96875 117.464844-67.773438 37.359375-64.707031 15.113281-147.746094-49.597656-185.105468zm0 0" fill="#a8ebfa"/><path d="m444.273438 226.898438c-20.59375-11.890626-43.984376-18.175782-67.640626-18.175782v271.050782c48.230469-.082032 93.140626-26.03125 117.238282-67.773438 37.359375-64.703125 15.113281-147.742188-49.597656-185.101562zm0 0" fill="#76e2f8"/><path d="m384.421875 284.230469c-26.84375-3.535157-49.976563-21.285157-60.375-46.328125-2.050781-4.945313-6.585937-8.421875-11.894531-9.121094-5.308594-.703125-10.585938 1.484375-13.851563 5.730469-11.3125 14.71875-18.578125 32.269531-21.007812 50.746093-3.699219 28.09375 3.765625 55.941407 21.011719 78.421876 17.25 22.480468 42.222656 36.894531 70.3125 40.59375 26.84375 3.535156 49.976562 21.285156 60.375 46.324218 2.054687 4.945313 6.585937 8.421875 11.894531 9.121094.65625.085938 1.3125.128906 1.960937.128906 4.621094 0 9.03125-2.136718 11.890625-5.859375 11.308594-14.707031 18.574219-32.253906 21.011719-50.742187 7.632812-57.992188-33.335938-111.382813-91.328125-119.015625zm0 0" fill="#00abe9"/><path d="m135.507812 208.742188c-74.71875 0-135.507812 60.789062-135.507812 135.507812s60.789062 135.507812 135.507812 135.507812c74.722657 0 135.507813-60.789062 135.507813-135.507812s-60.785156-135.507812-135.507813-135.507812zm0 0" fill="#a8ebfa"/><path d="m135.507812 208.742188v271.015624c74.722657 0 135.507813-60.789062 135.507813-135.507812s-60.785156-135.507812-135.507813-135.507812zm0 0" fill="#76e2f8"/><path d="m203.324219 230.769531c-2.050781-4.945312-6.582031-8.425781-11.890625-9.128906-4.589844-.609375-9.265625-.917969-13.886719-.917969-13.9375 0-27.585937 2.726563-40.5625 8.097656-54.035156 22.386719-79.789063 84.5625-57.40625 138.601563 10.359375 25.007813 6.554687 53.917969-9.9375 75.445313-3.253906 4.25-3.996094 9.917968-1.949219 14.863281 2.050782 4.945312 6.582032 8.425781 11.890625 9.128906 4.59375.609375 9.273438.917969 13.898438.917969h.003906c13.9375 0 27.582031-2.722656 40.546875-8.09375 54.035156-22.386719 79.792969-84.5625 57.410156-138.601563-10.359375-25.011719-6.554687-53.921875 9.933594-75.449219 3.253906-4.25 4-9.914062 1.949219-14.863281zm0 0" fill="#b9dd39"/><path d="m203.324219 230.769531c-2.050781-4.945312-6.582031-8.425781-11.890625-9.128906-4.589844-.609375-9.265625-.917969-13.886719-.917969-13.9375 0-27.585937 2.726563-40.5625 8.097656-.496094.203126-.984375.421876-1.476563.632813v229.59375c53.023438-22.898437 78.109376-84.421875 55.933594-137.964844-10.363281-25.011719-6.554687-53.921875 9.929688-75.449219 3.257812-4.25 4.003906-9.914062 1.953125-14.863281zm0 0" fill="#00ab5e"/><path d="m373.363281 67.773438c-24.132812-41.804688-69.140625-67.773438-117.460937-67.773438-23.65625 0-47.046875 6.285156-67.640625 18.175781-31.347657 18.097657-53.769531 47.320313-63.136719 82.28125-9.371094 34.960938-4.5625 71.476563 13.535156 102.824219 24.136719 41.804688 69.144532 67.773438 117.464844 67.773438 23.65625 0 47.046875-6.285157 67.640625-18.175782 31.347656-18.097656 53.769531-47.316406 63.136719-82.277344 9.367187-34.964843 4.5625-71.480468-13.539063-102.828124zm0 0" fill="#a8ebfa"/><path d="m373.363281 67.773438c-24.132812-41.804688-69.140625-67.773438-117.460937-67.773438v271.050781c.074218.003907.148437.003907.222656.003907 23.660156 0 47.050781-6.285157 67.644531-18.175782 31.34375-18.097656 53.765625-47.316406 63.136719-82.277344 9.363281-34.964843 4.558594-71.480468-13.542969-102.828124zm0 0" fill="#76e2f8"/><path d="m389.824219 121.855469c-7.113281-16.820313-18.546875-31.59375-33.105469-42.765625-18.691406-14.34375-41-21.921875-64.507812-21.921875-33.285157 0-63.984376 15.125-84.226563 41.503906-14.511719 18.917969-36.539063 29.765625-60.429687 29.765625-3.292969 0-6.617188-.214844-9.878907-.640625-5.3125-.699219-10.585937 1.496094-13.84375 5.742187-3.261719 4.25-4.007812 9.914063-1.960937 14.863282 7.082031 17.144531 18.644531 32.207031 33.4375 43.5625 18.695312 14.34375 41 21.921875 64.507812 21.921875 33.289063 0 63.988282-15.128907 84.226563-41.503907 14.515625-18.917968 36.539062-29.765624 60.421875-29.765624 3.296875 0 6.621094.214843 9.886718.640624.71875.097657 1.4375.132813 2.15625.128907 8.195313-.105469 14.808594-6.78125 14.808594-15 0-2.34375-.539062-4.554688-1.492187-6.53125zm0 0" fill="#ff4949"/><path d="m389.824219 121.855469c-7.113281-16.820313-18.546875-31.59375-33.105469-42.765625-18.691406-14.34375-41-21.921875-64.507812-21.921875-12.621094 0-24.863282 2.175781-36.308594 6.3125v144.175781c18.839844-6.761719 35.523437-18.832031 48.140625-35.273438 14.515625-18.917968 36.539062-29.765624 60.421875-29.765624 3.296875 0 6.621094.214843 9.886718.640624.71875.097657 1.4375.132813 2.15625.128907 8.195313-.105469 14.808594-6.78125 14.808594-15 0-2.34375-.539062-4.554688-1.492187-6.53125zm0 0" fill="#f30051"/><path d="m384.421875 284.230469c-2.636719-.347657-5.234375-.835938-7.789063-1.449219v123c23.371094 5.699219 43.011719 22.308594 52.359376 44.816406 2.054687 4.945313 6.585937 8.421875 11.894531 9.121094.65625.085938 1.3125.128906 1.960937.128906 4.621094 0 9.03125-2.136718 11.890625-5.855468 11.308594-14.707032 18.574219-32.253907 21.011719-50.742188 7.632812-57.996094-33.335938-111.386719-91.328125-119.019531zm0 0" fill="#0065a3"/></svg>