<svg height="512pt" viewBox="0 -129 512.001 512" width="512pt" xmlns="http://www.w3.org/2000/svg"><path d="m59.632812 100.410156h-20.289062c-5.769531 0-10.445312-4.675781-10.445312-10.445312v-9.839844c0-5.769531 4.679687-10.445312 10.445312-10.445312h20.289062zm0 0" fill="#ffd500"/><path d="m192.25 68.65625c-1.382812 0-2.78125-.371094-4.046875-1.152344-3.621094-2.238281-4.742187-6.988281-2.507813-10.609375l32.886719-53.234375c2.238281-3.6249998 6.988281-4.746094 10.613281-2.507812 3.621094 2.238281 4.746094 6.988281 2.507813 10.613281l-32.886719 53.230469c-1.457031 2.363281-3.980468 3.660156-6.566406 3.660156zm0 0" fill="#cecece"/><path d="m275.601562 52.800781 91.863282-31.398437c10.445312 0 18.914062 8.46875 18.914062 18.914062v28.335938h-110.777344zm0 0" fill="#9c9c9c"/><path d="m367.464844 21.402344-11.179688 3.820312c4.578125 3.453125 7.550782 8.921875 7.550782 15.097656v28.332032h22.542968v-28.332032c0-10.449218-8.46875-18.917968-18.914062-18.917968zm0 0" fill="#838383"/><path d="m507 198.265625h-454.566406v-127.179687c0-10.097657 8.1875-18.285157 18.285156-18.285157h311.0625c71.917969 0 130.21875 58.300781 130.21875 130.21875v10.246094c0 2.765625-2.238281 5-5 5zm0 0" fill="#00915d"/><path d="m381.78125 52.800781h-6.742188c33.109376 23.609375 54.699219 62.332031 54.699219 106.09375v10.246094c0 2.761719-2.238281 5-5 5h-372.304687v24.125h454.566406c2.761719 0 5-2.238281 5-5v-10.246094c0-71.917969-58.300781-130.21875-130.21875-130.21875zm0 0" fill="#007b4e"/><path d="m427.667969 120.652344h-21.648438c-36.472656 0-66.042969 29.566406-66.042969 66.042968v11.570313h153.734376v-11.570313c0-36.476562-29.570313-66.042968-66.042969-66.042968zm0 0" fill="#1fb480"/><path d="m425.8125 120.652344h-17.9375c-6.007812 0-11.832031.789062-17.378906 2.253906 29.074218 7.679688 50.515625 34.152344 50.515625 65.644531v9.714844h52.699219v-9.714844c0-37.5-30.398438-67.898437-67.898438-67.898437zm0 0" fill="#00a86d"/><path d="m208.773438 121.1875c0 25.84375-20.949219 46.796875-46.796876 46.796875-25.84375 0-46.792968-20.953125-46.792968-46.796875s20.949218-46.796875 46.792968-46.796875c25.847657 0 46.796876 20.953125 46.796876 46.796875zm0 0" fill="#1fb480"/><path d="m161.976562 74.390625c-3.5 0-6.90625.398437-10.1875 1.125 20.945313 4.652344 36.609376 23.328125 36.609376 45.671875s-15.664063 41.019531-36.609376 45.671875c3.28125.726563 6.6875 1.125 10.1875 1.125 25.847657 0 46.796876-20.953125 46.796876-46.796875s-20.949219-46.796875-46.796876-46.796875zm0 0" fill="#00a86d"/><path d="m90.078125 120.652344h-41.207031c-26.988282 0-48.871094 21.882812-48.871094 48.875v23.597656c0 2.839844 2.300781 5.140625 5.140625 5.140625h225.222656s-45.640625-31.207031-75.929687-52.699219c-30.289063-21.492187-40.550782-24.914062-64.355469-24.914062zm0 0" fill="#1fb480"/><path d="m154.433594 145.566406c-30.289063-21.488281-40.550782-24.910156-64.355469-24.910156h-41.207031c-.632813 0-1.261719.023438-1.886719.046875 20.757813.46875 31.570313 4.761719 59.898437 24.867187 30.289063 21.488282 75.929688 52.699219 75.929688 52.699219h47.550781c0-.003906-45.640625-31.210937-75.929687-52.703125zm0 0" fill="#00a86d"/><path d="m118.839844 199.214844c0 26.542968-21.519532 48.0625-48.066406 48.0625-26.542969 0-48.0625-21.519532-48.0625-48.0625 0-26.546875 21.519531-48.066406 48.0625-48.066406 26.546874 0 48.066406 21.519531 48.066406 48.066406zm0 0" fill="#e7e7e7"/><path d="m87.039062 153.976562c5.53125 7.828126 8.789063 17.375 8.789063 27.6875 0 26.546876-21.519531 48.0625-48.0625 48.0625-5.710937 0-11.1875-1-16.269531-2.824218 8.703125 12.320312 23.046875 20.375 39.277344 20.375 26.546874 0 48.066406-21.519532 48.066406-48.0625 0-20.835938-13.261719-38.570313-31.800782-45.238282zm0 0" fill="#cecece"/><path d="m82.671875 199.214844c0 6.570312-5.328125 11.894531-11.898437 11.894531-6.570313 0-11.894532-5.324219-11.894532-11.894531 0-6.570313 5.324219-11.898438 11.894532-11.898438 6.570312 0 11.898437 5.328125 11.898437 11.898438zm0 0" fill="#9c9c9c"/><path d="m70.773438 254.988281c-30.753907 0-55.773438-25.019531-55.773438-55.773437s25.019531-55.777344 55.773438-55.777344c30.753906 0 55.777343 25.023438 55.777343 55.777344s-25.023437 55.773437-55.777343 55.773437zm0-96.128906c-22.25 0-40.351563 18.101563-40.351563 40.355469 0 22.25 18.101563 40.351562 40.351563 40.351562s40.355468-18.101562 40.355468-40.351562c0-22.253906-18.105468-40.355469-40.355468-40.355469zm0 0" fill="#5a5a5a"/><path d="m464.90625 199.214844c0 26.542968-21.515625 48.0625-48.0625 48.0625-26.542969 0-48.0625-21.519532-48.0625-48.0625 0-26.546875 21.519531-48.066406 48.0625-48.066406 26.546875 0 48.0625 21.519531 48.0625 48.066406zm0 0" fill="#e7e7e7"/><path d="m433.109375 153.976562c5.527344 7.828126 8.789063 17.375 8.789063 27.6875 0 26.546876-21.519532 48.0625-48.066407 48.0625-5.710937 0-11.183593-1-16.265625-2.824218 8.703125 12.320312 23.042969 20.375 39.277344 20.375 26.546875 0 48.0625-21.519532 48.0625-48.0625 0-20.835938-13.257812-38.570313-31.796875-45.238282zm0 0" fill="#cecece"/><path d="m416.84375 254.988281c-30.753906 0-55.777344-25.019531-55.777344-55.773437s25.023438-55.777344 55.777344-55.777344 55.773438 25.023438 55.773438 55.777344-25.019532 55.773437-55.773438 55.773437zm0-96.128906c-22.25 0-40.355469 18.101563-40.355469 40.355469 0 22.25 18.105469 40.351562 40.355469 40.351562s40.351562-18.101562 40.351562-40.351562c0-22.253906-18.101562-40.355469-40.351562-40.355469zm0 0" fill="#5a5a5a"/><path d="m428.738281 199.214844c0 6.570312-5.324219 11.894531-11.894531 11.894531s-11.894531-5.324219-11.894531-11.894531c0-6.570313 5.324219-11.898438 11.894531-11.898438s11.894531 5.328125 11.894531 11.898438zm0 0" fill="#9c9c9c"/><path d="m305.984375 155.9375h-46.980469c-15.164062 0-27.503906-12.339844-27.503906-27.503906v-75.632813h15v75.632813c0 6.894531 5.609375 12.503906 12.503906 12.503906h46.980469c6.898437 0 12.507813-5.609375 12.507813-12.503906v-75.632813h15v75.632813c0 15.164062-12.339844 27.503906-27.507813 27.503906zm0 0" fill="#007b4e"/><path d="m274.601562 92.546875h-10.601562c-4.144531 0-7.5-3.359375-7.5-7.5 0-4.144531 3.355469-7.5 7.5-7.5h10.601562c4.144532 0 7.5 3.355469 7.5 7.5 0 4.140625-3.355468 7.5-7.5 7.5zm0 0" fill="#9c9c9c"/></svg>