<?xml version="1.0" encoding="iso-8859-1"?>
<!-- Generator: Adobe Illustrator 19.0.0, SVG Export Plug-In . SVG Version: 6.00 Build 0)  -->
<svg version="1.1" id="Capa_1" xmlns="http://www.w3.org/2000/svg" xmlns:xlink="http://www.w3.org/1999/xlink" x="0px" y="0px"
	 viewBox="0 0 512 512" style="enable-background:new 0 0 512 512;" xml:space="preserve">
<g>
	<path style="fill:#3F4052;" d="M424.081,98.467L76.015,0.563c-7.96-2.238-16.224,2.398-18.462,10.356s2.398,16.223,10.356,18.462
		l348.065,97.904c5.358,1.508,9.099,6.446,9.099,12.012v72.447c0,8.267,6.702,14.968,14.968,14.968s14.968-6.702,14.968-14.968
		v-72.447C455.01,120.379,442.291,103.59,424.081,98.467z"/>
	<path style="fill:#3F4052;" d="M129.924,482.064H84.949c-8.267,0-14.968,6.702-14.968,14.968S76.682,512,84.949,512h44.975
		c8.267,0,14.968-6.702,14.968-14.968S138.191,482.064,129.924,482.064z"/>
</g>
<path style="fill:#1D1D2E;" d="M410.335,482.064H365.36c-8.267,0-14.968,6.702-14.968,14.968S357.092,512,365.359,512h44.975
	c8.267,0,14.968-6.702,14.968-14.968S418.601,482.064,410.335,482.064z"/>
<path style="fill:#B2B2E0;" d="M404.762,431.598H90.522V157.064c0-8.284,6.716-15,15-15h284.24c8.284,0,15,6.716,15,15V431.598z"/>
<path style="fill:#F2EBFA;" d="M247.642,142.064H105.49c-8.267,0-14.968,6.701-14.968,14.968v274.565h157.12V142.064z"/>
<path style="fill:#5355BD;" d="M408.293,497.51H86.99c-16.569,0-30-13.431-30-30V206.638c0-16.569,13.431-30,30-30h321.303
	c16.569,0,30,13.431,30,30V467.51C438.293,484.078,424.862,497.51,408.293,497.51z"/>
<path style="fill:#6E79E0;" d="M247.642,497.51H86.99c-16.569,0-30-13.431-30-30V206.638c0-16.569,13.431-30,30-30h160.652V497.51z"
	/>
<rect x="108.64" y="241.24" style="fill:#1D1D2E;" width="277.99" height="71.919"/>
<rect x="108.64" y="241.24" style="fill:#3F4052;" width="139" height="71.919"/>
<path style="fill:#6E79E0;" d="M346.806,294.076H148.478c-8.267,0-14.968,6.702-14.968,14.968c0,1.428,0.212,2.805,0.586,4.113
	h227.092c0.374-1.308,0.586-2.685,0.586-4.113C361.774,300.777,355.072,294.076,346.806,294.076z"/>
<path style="fill:#F2EBFA;" d="M247.642,294.076h-99.164c-8.267,0-14.968,6.702-14.968,14.968c0,1.428,0.212,2.805,0.586,4.113
	h113.546V294.076z"/>
<path style="fill:#48F9CE;" d="M124.069,377.077h-15.424c-8.267,0-14.968,6.702-14.968,14.968s6.702,14.968,14.968,14.968h15.424
	c8.267,0,14.968-6.702,14.968-14.968S132.335,377.077,124.069,377.077z"/>
<path style="fill:#FF3890;" d="M182.154,377.077H166.73c-8.267,0-14.968,6.702-14.968,14.968s6.702,14.968,14.968,14.968h15.424
	c8.267,0,14.968-6.702,14.968-14.968S190.42,377.077,182.154,377.077z"/>
<g>
</g>
<g>
</g>
<g>
</g>
<g>
</g>
<g>
</g>
<g>
</g>
<g>
</g>
<g>
</g>
<g>
</g>
<g>
</g>
<g>
</g>
<g>
</g>
<g>
</g>
<g>
</g>
<g>
</g>
</svg>
