<svg id="Capa_1" enable-background="new 0 0 512 512" height="512" viewBox="0 0 512 512" width="512" xmlns="http://www.w3.org/2000/svg"><g><g fill="#2ad7f5"><path d="m379.03 370.565c0 67.3-54.76 122.05-122.06 122.05s-122.05-54.75-122.05-122.05c0-85.35 107.41-183.57 111.99-187.71l10.06-9.11 10.07 9.11c4.57 4.14 111.99 102.36 111.99 187.71z"/><path d="m169.41 154.585c0 46.71-38 84.7-84.71 84.7-46.7 0-84.7-37.99-84.7-84.7 0-24.94 12.8-53.94 38.04-86.18 18.01-23.01 35.84-39.23 36.6-39.91l10.06-9.11 10.07 9.11c.75.68 18.58 16.9 36.6 39.91 25.24 32.24 38.04 61.24 38.04 86.18z"/><path d="m512 154.585c0 46.71-38 84.7-84.7 84.7-46.71 0-84.71-37.99-84.71-84.7 0-24.94 12.8-53.94 38.04-86.18 18.02-23.01 35.85-39.23 36.6-39.91l10.07-9.11 10.06 9.11c.76.68 18.59 16.9 36.6 39.91 25.24 32.24 38.04 61.24 38.04 86.18z"/></g><path d="m379.03 370.565c0 67.3-54.76 122.05-122.06 122.05v-52.987l10-14.908-10-15.092v-235.883l10.07 9.11c4.57 4.14 111.99 102.36 111.99 187.71z" fill="#3ba9ff"/><path d="m294.862 371.74c0 20.891-16.996 37.888-37.887 37.888v30c37.433 0 67.887-30.454 67.887-67.888z" fill="#fff"/><g fill="#3ba9ff"><path d="m169.41 154.585c0 46.71-38 84.7-84.71 84.7v-219.9l10.07 9.11c.75.68 18.58 16.9 36.6 39.91 25.24 32.24 38.04 61.24 38.04 86.18z"/><path d="m512 154.585c0 46.71-38 84.7-84.7 84.7v-219.9l10.06 9.11c.76.68 18.59 16.9 36.6 39.91 25.24 32.24 38.04 61.24 38.04 86.18z"/></g></g></svg>